<?xml version="1.0" encoding="UTF-8" standalone="yes"?>
<svg width="100%" height="100%" viewBox="0 0 1182 1182" version="1.2" xml:space="preserve" fill-rule="evenodd" stroke-linejoin="round" stroke-miterlimit="1" baseProfile="tiny-ps" xmlns="http://www.w3.org/2000/svg">
  <title>bimi-svg-tiny-12-ps</title>
  <g transform="matrix(1,0,0,1,-708.661,-1181.1)">
    <g transform="matrix(0.834685,0,0,0.909266,288.952,614.664)">
      <rect x="502.835" y="622.962" width="1415.03" height="1298.96" fill="rgb(24,24,50)"/>
    </g>
    <g id="Symbol" transform="matrix(4.63217,-1.25455e-31,1.25455e-31,-4.63217,125.929,3355.94)">
      <g transform="matrix(1,0,0,1,236.874,429.1)">
        <path d="M5.28,14.909C17,14.909 46.096,7.942 59.06,5.654C61.053,5.302 76.786,2.621 77.676,2.07L77.676,1C73.966,1 28.222,8.694 21.399,9.898C19.176,10.29 1.885,12.613 1,13.126L1,13.482C2.557,13.482 3.7,14.518 5.28,14.909Z" fill="white" fill-rule="nonzero"/>
      </g>
      <g transform="matrix(1,0,0,1,226.532,399.499)">
        <path d="M5.636,40.943C11.757,40.943 52.474,33.585 61.2,32.045C64.772,31.415 85.498,28.651 87.305,27.748C88.511,24.208 101.571,6.014 101.571,1C99.036,3.642 88.052,20.904 86.235,24.538C82.152,24.538 20.245,35.454 11.271,37.038C8.464,37.533 4.135,38.803 1,38.803C1,39.275 1.357,39.019 1.357,39.516C2.914,39.516 4.056,40.552 5.636,40.943Z" fill="white" fill-rule="nonzero"/>
      </g>
      <g transform="matrix(1,0,0,1,215.12,377.388)">
        <path d="M5.636,59.131C12.576,59.131 60.037,49.935 70.472,48.093C74.327,47.413 94.462,44.599 96.417,43.546C98.21,42.581 109.419,25.131 110.968,22.255C113.979,16.662 122.612,7.604 122.612,1C122.14,1 122.396,1.357 121.899,1.357C120.621,4.268 97.096,38.728 96.132,39.516C95.086,40.372 72.602,43.962 69.402,44.527C61.217,45.972 4.114,56.991 1,56.991L1,57.348C2.534,57.937 3.993,58.737 5.636,59.131Z" fill="white" fill-rule="nonzero"/>
      </g>
      <g transform="matrix(1,0,0,1,203.351,368.116)">
        <path d="M6.706,64.481C11.455,64.481 60.69,54.33 69.759,52.73C76.864,51.476 102.903,47.409 107.99,44.866C108.835,43.904 109.469,42.508 110.13,41.3C111.975,39.446 133.446,8.914 134.452,7.045C135.322,5.43 136.164,3.309 136.164,1L135.451,1C134.163,3.932 106.674,41.206 106.136,41.496C104.128,42.577 78.956,46.995 74.752,47.737C64.51,49.544 5.75,61.984 1,61.984L1,62.698C2.965,63.502 4.594,64.063 6.706,64.481Z" fill="white" fill-rule="nonzero"/>
      </g>
      <g transform="matrix(1,0,0,1,190.869,358.843)">
        <path d="M6.706,69.83C9.773,69.83 72.731,56.191 82.241,54.513C87.377,53.606 114.99,48.606 117.797,47.095C119.976,45.922 129.6,31.599 132.081,28.568C135.271,24.668 147.162,9.451 149.11,5.832C149.718,4.702 150.073,2.714 150.073,1L149.359,1C147.429,5.217 119.48,38.29 117.619,42.013C115.996,43.613 92.039,48.148 88.304,48.807C76.533,50.884 5.423,66.977 1,66.977L1,67.69C2.667,68.345 4.938,69.43 6.706,69.83Z" fill="white" fill-rule="nonzero"/>
      </g>
      <g transform="matrix(1,0,0,1,177.673,349.571)">
        <path d="M6.706,74.466C12.987,74.466 43.473,66.41 52.284,64.855C59.406,63.598 123.353,49.903 127.177,48.628C127.871,48.397 128.551,47.957 129.192,47.612C131.208,46.526 144.732,29.694 146.506,26.678C147.768,25.49 148.817,24.35 149.716,22.755C150.978,21.567 152.026,20.427 152.926,18.832C156.536,14.961 164.695,6.499 164.695,1C164.058,1.14 163.834,1.43 163.268,1.713C161.971,3.071 128.951,42.174 128.675,42.726C127.316,44.024 101.293,49.215 97.505,50.162C86.748,52.851 68.196,57.285 57.633,59.149C49.12,60.651 40.822,63.354 32.312,64.855C27.261,65.747 3.909,71.97 1,71.97L1,72.327C2.718,73.007 4.868,74.063 6.706,74.466Z" fill="white" fill-rule="nonzero"/>
      </g>
      <g transform="matrix(1,0,0,1,173.037,339.942)">
        <path d="M6.35,77.676C12.055,77.676 40.239,69.498 48.361,68.065C62.811,65.515 76.85,60.594 91.3,58.044C94.74,57.436 98.06,56.19 101.499,55.583C104.934,54.977 129.689,49.443 131.367,48.539C133.822,47.217 144.815,34.164 147.22,31.225C151.117,26.461 167.925,9.38 169.759,5.975C170.504,4.592 170.401,2.96 170.401,1C165.923,5.863 133.437,40.772 130.868,42.155C124.29,45.697 62.535,59.618 50.001,62.751C44.491,64.129 10.277,73.102 7.616,72.897C6.872,72.84 1.981,70.43 1,69.83C1.903,71.993 1.945,74.174 3.14,76.25C3.985,76.961 5.242,77.309 6.35,77.676Z" fill="white" fill-rule="nonzero"/>
      </g>
      <g transform="matrix(1,0,0,1,169.471,329.956)">
        <path d="M12.056,78.389C17.701,78.389 45.894,70.197 53.282,68.35C67.125,64.89 95.719,58.556 107.633,54.584C113.03,52.785 118.221,50.401 123.593,48.611C128.247,47.059 133.059,45.31 137.394,42.976C142.157,40.411 146.01,35.287 149.805,31.492C155.511,25.787 169.288,12.97 173.611,7.687C175.054,5.923 175.75,3.704 175.75,1C175.073,1.519 174.381,1.956 173.967,2.783C172.043,4.728 146.671,28.247 142.583,31.67C139.417,34.664 114.435,44.352 109.149,46.114C103.322,48.057 97.796,50.849 91.942,52.801C87.011,54.444 16.836,72.761 15.069,72.897C11.71,73.156 4.419,68.76 1,68.76C1,70.486 2.018,72.937 2.783,74.466C4.195,74.466 10.477,77.422 12.056,78.389Z" fill="white" fill-rule="nonzero"/>
      </g>
      <g transform="matrix(1,0,0,1,166.261,320.327)">
        <path d="M18.118,77.32C19.302,77.32 20.23,77.445 21.043,77.302C27.591,76.146 75.424,62.575 83.24,59.969C93.08,56.689 102.351,51.53 112.18,48.254C116.777,46.722 145.955,35.469 148.2,33.632C152.348,30.238 177.204,8.842 179.317,6.26C180.317,5.038 180.052,2.018 180.743,1C179.106,1 174.427,5.25 172.897,6.35C171.704,7.616 170.462,8.498 168.974,9.559C168.483,10.212 167.989,10.552 167.191,10.986C165.998,12.252 164.756,13.134 163.268,14.195C162.776,14.849 162.283,15.188 161.485,15.622C160.292,16.889 159.05,17.771 157.562,18.832C157.07,19.485 156.577,19.824 155.779,20.258C154.586,21.525 153.344,22.407 151.856,23.468C148.562,26.573 118.26,38.084 112.359,40.051C109.083,41.143 106.005,42.883 102.73,43.974C89.775,48.293 77.516,54.637 64.57,58.953C56.037,61.797 47.152,63.665 38.607,66.514C33.904,68.081 28.779,70.021 23.896,70.882C17.477,72.015 7.964,68.047 1,68.047C1,69.453 1.699,72.339 2.534,73.022C3.47,73.789 16.156,76.909 18.118,77.32Z" fill="white" fill-rule="nonzero"/>
      </g>
      <g transform="matrix(1,0,0,1,163.051,310.341)">
        <path d="M23.111,75.18C36.623,75.18 56.237,65.356 69.028,61.093C73.633,59.558 77.988,57.274 82.58,55.743C101.951,49.286 120.374,39.995 139.73,33.543C144.544,31.938 149.118,29.569 153.942,27.961C157.396,26.81 175.821,12.622 179.673,9.47C181.852,7.688 187.017,4.955 184.666,1C182.728,1.791 180.659,2.957 178.96,4.21C176.039,6.989 172.149,8.391 168.974,10.986C164.953,14.727 159.97,17.158 155.404,19.616C152.083,21.405 123.997,32.011 119.135,33.632C113.94,35.364 108.995,37.963 103.8,39.695C83.748,46.379 64.65,55.835 44.598,62.519C40.346,63.937 36.305,66.021 32.045,67.441C25.69,69.559 3.925,67.298 1,68.76C1.483,69.44 2.07,71.987 2.07,73.04C4.55,74.102 19.447,74.684 23.111,75.18Z" fill="white" fill-rule="nonzero"/>
      </g>
      <g transform="matrix(1,0,0,1,160.198,303.208)">
        <path d="M2.427,71.613C6.794,71.613 10.965,70.399 14.998,70.187C19.962,69.926 25.808,69.601 30.672,68.743C36.961,67.633 67.088,54.488 76.16,51.464C83.517,49.011 161.199,19.24 164.374,17.53C171.292,13.805 177.735,8.567 185.023,4.923C184.426,3.373 183.262,2.471 182.526,1C176.432,3.869 170.692,6.94 165.034,9.987C164.097,10.492 55.76,52.023 48.878,54.317C32.116,59.904 33.826,61.011 14.267,64.463C12.863,64.711 1.758,66.571 1,66.977C1.409,68.151 2.07,69.901 2.07,71.257C2.23,71.257 2.308,71.227 2.427,71.613Z" fill="white" fill-rule="nonzero"/>
      </g>
      <g transform="matrix(1,0,0,1,159.485,294.292)">
        <path d="M1.357,71.97C2.461,71.115 10.666,69.431 12.412,68.85C17.64,67.107 23.083,65.994 28.318,64.249C33.508,62.519 38.526,60.323 43.707,58.596C49.013,56.827 54.09,54.303 59.399,52.534C76.997,46.667 93.89,38.801 111.485,32.937C116.787,31.169 121.86,28.622 127.159,26.856C135.646,24.027 174.211,9.711 180.387,5.993C179.127,4.668 178.125,2.674 177.177,1C174.891,1 131.634,18.291 125.198,20.437C107.907,26.2 90.33,34.318 73.129,40.051C64.659,42.875 6.775,64.446 1,67.334L1,71.613C1.16,71.613 1.238,71.584 1.357,71.97Z" fill="white" fill-rule="nonzero"/>
      </g>
      <g transform="matrix(1,0,0,1,159.128,285.091)">
        <path d="M1,71.899C3.665,71.899 28.949,58.928 34.434,57.099C60.753,48.326 86.174,36.928 112.484,28.158C118.765,26.064 124.802,23.172 131.082,21.079C134.743,19.859 172.574,5.885 173.254,5.566C173.254,5.093 172.897,5.35 172.897,4.852C172.094,4.189 167.356,1.05 166.71,1.001C165.332,0.895 133.565,13.44 129.049,14.945C120.348,17.845 29.162,51.502 26.517,52.926C19.3,56.813 12.336,61.166 5.119,65.052C3.808,65.758 2.599,66.82 1,67.62L1,71.899Z" fill="white" fill-rule="nonzero"/>
      </g>
      <g transform="matrix(1,0,0,1,158.772,276.958)">
        <path d="M1,71.117C10.323,66.633 17.877,59.416 26.713,54.658C29.043,53.404 105.712,25.306 113.25,22.793C125.073,18.852 136.525,13.858 148.343,9.918C150.015,9.361 159.661,6.29 160.772,5.496C160.772,5.005 160.694,4.883 160.415,4.426C158.324,3.747 156.734,1.313 154.869,1.003C153.578,0.787 118.103,14.459 113.429,16.017C104.422,19.019 27.936,46.661 24.377,48.577C19.42,51.247 4.924,64.519 1,66.48L1,71.117Z" fill="white" fill-rule="nonzero"/>
      </g>
      <g transform="matrix(1,0,0,1,158.415,268.987)">
        <path d="M1,69.814C6.767,67.109 18.285,53.669 24.199,50.485C27.245,48.845 101.77,22.155 110.344,19.297C114.937,17.766 147.596,5.264 149.359,5.264C149.359,4.792 149.003,5.048 149.003,4.551C146.902,3.678 144.973,1.247 143.011,1.002C141.573,0.822 110.239,12.83 105.868,14.287C96.124,17.535 27.176,41.955 22.594,44.422C18.07,46.858 4.17,63.593 1,65.178L1,69.814Z" fill="white" fill-rule="nonzero"/>
      </g>
      <g transform="matrix(1,0,0,1,157.926,261.142)">
        <path d="M1.133,68.387L1.846,68.387C6.539,64.058 18.403,48.601 22.192,46.561C25.594,44.73 108.968,15.116 118.733,11.861C124.908,9.802 131.641,7.947 137.724,4.906L137.724,4.55C135.622,3.677 133.693,1.246 131.732,1.001C130.755,0.879 105.508,10.385 102.149,11.504C93.886,14.259 23.849,38.715 21.265,40.106C20.471,40.533 20.02,41.468 18.965,41.996C17.51,43.492 2.075,62.064 1.311,63.483C0.737,64.549 1.133,66.575 1.133,68.387Z" fill="white" fill-rule="nonzero"/>
      </g>
      <g transform="matrix(1,0,0,1,157.598,253.635)">
        <path d="M1.46,66.265L1.817,66.265C4.879,63.363 16.114,45.903 19.952,42.762C21.92,41.152 47.9,32.555 52.316,31.083C70.359,25.069 88.105,18.178 106.15,12.163C112.88,9.92 119.463,7.066 126.639,4.924L126.639,4.567C125.639,3.68 121.497,1.054 120.487,1.001C118.978,0.921 102.475,7.266 99.552,8.24C72.861,17.138 46.552,27.179 19.863,36.076C19.208,36.294 18.761,36.909 17.865,37.377C16.853,38.486 2.41,59.164 1.371,61.093C0.741,62.263 1.104,64.173 1.104,65.908C1.264,65.908 1.341,65.878 1.46,66.265Z" fill="white" fill-rule="nonzero"/>
      </g>
      <g transform="matrix(1,0,0,1,157.262,246.162)">
        <path d="M1.083,63.753L1.796,63.753C3.293,62.22 15.135,43.237 17.132,39.858C19.631,37.256 38.107,31.767 42.452,30.318C59.643,24.588 76.615,18.217 93.808,12.487C96.912,11.452 113.006,5.265 115.206,5.265L115.206,4.195C113.343,3.442 111.583,1.21 109.928,1.003C108.43,0.816 85.862,9.215 82.413,10.365C76.97,12.179 44.154,23.065 41.579,24.452C35.789,27.569 30.035,30.75 24.246,33.867C22.076,35.035 19.52,35.983 17.595,37.558C15.814,39.016 14.276,41.159 12.816,42.943C9.433,47.078 2.955,53.697 1.244,58.831C0.814,60.118 1.083,61.783 1.083,63.753Z" fill="white" fill-rule="nonzero"/>
      </g>
      <g transform="matrix(1,0,0,1,226.889,239.026)">
        <path d="M1.713,15.967C7.654,13.887 31.356,6.641 34.88,4.554L34.88,4.198C32.862,3.367 31.274,1.353 29.406,1.024C25.68,0.366 6.763,13.553 1,15.253L1,15.61C1.226,15.61 1.55,15.536 1.713,15.967Z" fill="white" fill-rule="nonzero"/>
      </g>
    </g>
    <g transform="matrix(0.622529,0,0,0.622529,574.486,890.007)">
      <path d="M1447.76,941.918L1447.76,1890.55L1201.08,1890.55L1201.08,1492.11L1127.25,1492.11L1127.25,1890.55L880.572,1890.55L880.572,941.918L1127.25,941.918L1127.25,1281.18L1201.08,1281.18L1201.08,941.918L1447.76,941.918Z" fill="white" fill-rule="nonzero" stroke="rgb(24,24,35)" stroke-width="30.12px"/>
    </g>
  </g>
</svg>