<?xml version="1.0" encoding="UTF-8" standalone="yes"?>
<svg width="100%" height="100%" viewBox="0 0 1182 1182" version="1.2" xml:space="preserve" fill-rule="evenodd" stroke-linejoin="round" stroke-miterlimit="2" baseProfile="tiny-ps" xmlns="http://www.w3.org/2000/svg">
  <title>bimi-svg-tiny-12-ps</title>
  <g transform="matrix(1,0,0,1,-708.661,-1181.1)">
    <g transform="matrix(0.834685,0,0,0.909266,288.952,614.664)">
      <rect x="502.835" y="622.962" width="1415.03" height="1298.96" fill="rgb(24,24,50)"/>
    </g>
    <g id="Symbol-Simplified" transform="matrix(0.875,0,0,0.875,164.383,221.457)">
      <g transform="matrix(4.63217,-1.25455e-31,1.25455e-31,-4.63217,1223.17,1368.27)">
        <path d="M5.28,14.909C17,14.909 46.096,7.942 59.06,5.654C61.053,5.302 76.786,2.621 77.676,2.07L77.676,1C73.966,1 28.222,8.694 21.399,9.898C19.176,10.29 1.885,12.613 1,13.126L1,13.482C2.557,13.482 3.7,14.518 5.28,14.909Z" fill="rgb(238,238,238)" fill-rule="nonzero" stroke="rgb(238,238,238)" stroke-width="2.06px"/>
      </g>
      <g transform="matrix(4.63217,-1.25455e-31,1.25455e-31,-4.63217,1122.4,1607.81)">
        <path d="M5.636,59.131C12.576,59.131 60.037,49.935 70.472,48.093C74.327,47.413 94.462,44.599 96.417,43.546C98.21,42.581 109.419,25.131 110.968,22.255C113.979,16.662 122.612,7.604 122.612,1C122.14,1 122.396,1.357 121.899,1.357C120.621,4.268 97.096,38.728 96.132,39.516C95.086,40.372 72.602,43.962 69.402,44.527C61.217,45.972 4.114,56.991 1,56.991L1,57.348C2.534,57.937 3.993,58.737 5.636,59.131Z" fill="rgb(238,238,238)" fill-rule="nonzero" stroke="rgb(238,238,238)" stroke-width="2.06px"/>
      </g>
      <g transform="matrix(4.63217,-1.25455e-31,1.25455e-31,-4.63217,1010.07,1693.71)">
        <path d="M6.706,69.83C9.773,69.83 72.731,56.191 82.241,54.513C87.377,53.606 114.99,48.606 117.797,47.095C119.976,45.922 129.6,31.599 132.081,28.568C135.271,24.668 147.162,9.451 149.11,5.832C149.718,4.702 150.073,2.714 150.073,1L149.359,1C147.429,5.217 119.48,38.29 117.619,42.013C115.996,43.613 92.039,48.148 88.304,48.807C76.533,50.884 5.423,66.977 1,66.977L1,67.69C2.667,68.345 4.938,69.43 6.706,69.83Z" fill="rgb(238,238,238)" fill-rule="nonzero" stroke="rgb(238,238,238)" stroke-width="2.06px"/>
      </g>
      <g transform="matrix(4.63217,-1.25455e-31,1.25455e-31,-4.63217,927.467,1781.27)">
        <path d="M6.35,77.676C12.055,77.676 40.239,69.498 48.361,68.065C62.811,65.515 76.85,60.594 91.3,58.044C94.74,57.436 98.06,56.19 101.499,55.583C104.934,54.977 129.689,49.443 131.367,48.539C133.822,47.217 144.815,34.164 147.22,31.225C151.117,26.461 167.925,9.38 169.759,5.975C170.504,4.592 170.401,2.96 170.401,1C165.923,5.863 133.437,40.772 130.868,42.155C124.29,45.697 62.535,59.618 50.001,62.751C44.491,64.129 10.277,73.102 7.616,72.897C6.872,72.84 1.981,70.43 1,69.83C1.903,71.993 1.945,74.174 3.14,76.25C3.985,76.961 5.242,77.309 6.35,77.676Z" fill="rgb(238,238,238)" fill-rule="nonzero" stroke="rgb(238,238,238)" stroke-width="2.06px"/>
      </g>
      <g transform="matrix(4.63217,-1.25455e-31,1.25455e-31,-4.63217,896.079,1872.13)">
        <path d="M18.118,77.32C19.302,77.32 20.23,77.445 21.043,77.302C27.591,76.146 75.424,62.575 83.24,59.969C93.08,56.689 102.351,51.53 112.18,48.254C116.777,46.722 145.955,35.469 148.2,33.632C152.348,30.238 177.204,8.842 179.317,6.26C180.317,5.038 180.052,2.018 180.743,1C179.106,1 174.427,5.25 172.897,6.35C171.704,7.616 170.462,8.498 168.974,9.559C168.483,10.212 167.989,10.552 167.191,10.986C165.998,12.252 164.756,13.134 163.268,14.195C162.776,14.849 162.283,15.188 161.485,15.622C160.292,16.889 159.05,17.771 157.562,18.832C157.07,19.485 156.577,19.824 155.779,20.258C154.586,21.525 153.344,22.407 151.856,23.468C148.562,26.573 118.26,38.084 112.359,40.051C109.083,41.143 106.005,42.883 102.73,43.974C89.775,48.293 77.516,54.637 64.57,58.953C56.037,61.797 47.152,63.665 38.607,66.514C33.904,68.081 28.779,70.021 23.896,70.882C17.477,72.015 7.964,68.047 1,68.047C1,69.453 1.699,72.339 2.534,73.022C3.47,73.789 16.156,76.909 18.118,77.32Z" fill="rgb(238,238,238)" fill-rule="nonzero" stroke="rgb(238,238,238)" stroke-width="2.06px"/>
      </g>
      <g transform="matrix(4.63217,-1.25455e-31,1.25455e-31,-4.63217,867.996,1951.42)">
        <path d="M2.427,71.613C6.794,71.613 10.965,70.399 14.998,70.187C19.962,69.926 25.808,69.601 30.672,68.743C36.961,67.633 67.088,54.488 76.16,51.464C83.517,49.011 161.199,19.24 164.374,17.53C171.292,13.805 177.735,8.567 185.023,4.923C184.426,3.373 183.262,2.471 182.526,1C176.432,3.869 170.692,6.94 165.034,9.987C164.097,10.492 55.76,52.023 48.878,54.317C32.116,59.904 33.826,61.011 14.267,64.463C12.863,64.711 1.758,66.571 1,66.977C1.409,68.151 2.07,69.901 2.07,71.257C2.23,71.257 2.308,71.227 2.427,71.613Z" fill="rgb(238,238,238)" fill-rule="nonzero" stroke="rgb(238,238,238)" stroke-width="2.06px"/>
      </g>
      <g transform="matrix(4.63217,-1.25455e-31,1.25455e-31,-4.63217,863.04,2035.35)">
        <path d="M1,71.899C3.665,71.899 28.949,58.928 34.434,57.099C60.753,48.326 86.174,36.928 112.484,28.158C118.765,26.064 124.802,23.172 131.082,21.079C134.743,19.859 172.574,5.885 173.254,5.566C173.254,5.093 172.897,5.35 172.897,4.852C172.094,4.189 167.356,1.05 166.71,1.001C165.332,0.895 133.565,13.44 129.049,14.945C120.348,17.845 29.162,51.502 26.517,52.926C19.3,56.813 12.336,61.166 5.119,65.052C3.808,65.758 2.599,66.82 1,67.62L1,71.899Z" fill="rgb(238,238,238)" fill-rule="nonzero" stroke="rgb(238,238,238)" stroke-width="2.06px"/>
      </g>
      <g transform="matrix(4.63217,-1.25455e-31,1.25455e-31,-4.63217,859.736,2109.94)">
        <path d="M1,69.814C6.767,67.109 18.285,53.669 24.199,50.485C27.245,48.845 101.77,22.155 110.344,19.297C114.937,17.766 147.596,5.264 149.359,5.264C149.359,4.792 149.003,5.048 149.003,4.551C146.902,3.678 144.973,1.247 143.011,1.002C141.573,0.822 110.239,12.83 105.868,14.287C96.124,17.535 27.176,41.955 22.594,44.422C18.07,46.858 4.17,63.593 1,65.178L1,69.814Z" fill="rgb(238,238,238)" fill-rule="nonzero" stroke="rgb(238,238,238)" stroke-width="2.06px"/>
      </g>
      <g transform="matrix(4.63217,-1.25455e-31,1.25455e-31,-4.63217,855.951,2181.05)">
        <path d="M1.46,66.265L1.817,66.265C4.879,63.363 16.114,45.903 19.952,42.762C21.92,41.152 47.9,32.555 52.316,31.083C70.359,25.069 88.105,18.178 106.15,12.163C112.88,9.92 119.463,7.066 126.639,4.924L126.639,4.567C125.639,3.68 121.497,1.054 120.487,1.001C118.978,0.921 102.475,7.266 99.552,8.24C72.861,17.138 46.552,27.179 19.863,36.076C19.208,36.294 18.761,36.909 17.865,37.377C16.853,38.486 2.41,59.164 1.371,61.093C0.741,62.263 1.104,64.173 1.104,65.908C1.264,65.908 1.341,65.878 1.46,66.265Z" fill="rgb(238,238,238)" fill-rule="nonzero" stroke="rgb(238,238,238)" stroke-width="2.06px"/>
      </g>
      <g transform="matrix(4.63217,-1.25455e-31,1.25455e-31,-4.63217,1176.92,2248.73)">
        <path d="M1.713,15.967C7.654,13.887 31.356,6.641 34.88,4.554L34.88,4.198C32.862,3.367 31.274,1.353 29.406,1.024C25.68,0.366 6.763,13.553 1,15.253L1,15.61C1.226,15.61 1.55,15.536 1.713,15.967Z" fill="rgb(238,238,238)" fill-rule="nonzero" stroke="rgb(238,238,238)" stroke-width="2.06px"/>
      </g>
    </g>
    <g transform="matrix(0.498023,0,0,0.498023,719.431,1066.34)">
      <path d="M1447.76,941.918L1447.76,1890.55L1201.08,1890.55L1201.08,1492.11L1127.25,1492.11L1127.25,1890.55L880.572,1890.55L880.572,941.918L1127.25,941.918L1127.25,1281.18L1201.08,1281.18L1201.08,941.918L1447.76,941.918Z" fill="rgb(24,24,35)" fill-rule="nonzero" stroke="rgb(238,238,238)" stroke-width="37.65px" stroke-miterlimit="1"/>
    </g>
  </g>
</svg>